<svg width="52" height="52" viewBox="0 0 52 52" fill="none" xmlns="http://www.w3.org/2000/svg">
<path d="M43.3333 43.3334H8.66665C7.51737 43.3334 6.41517 42.8769 5.60252 42.0642C4.78986 41.2516 4.33331 40.1494 4.33331 39.0001V12.8116C4.38192 11.6953 4.85983 10.6409 5.66728 9.8686C6.47473 9.09627 7.5493 8.66569 8.66665 8.66675H43.3333C44.4826 8.66675 45.5848 9.1233 46.3974 9.93595C47.2101 10.7486 47.6666 11.8508 47.6666 13.0001V39.0001C47.6666 40.1494 47.2101 41.2516 46.3974 42.0642C45.5848 42.8769 44.4826 43.3334 43.3333 43.3334ZM8.66665 17.0474V39.0001H43.3333V17.0474L26 28.6001L8.66665 17.0474ZM10.4 13.0001L26 23.4001L41.6 13.0001H10.4Z" fill="white"/>
</svg>
