<svg width="249" height="184" viewBox="0 0 249 184" fill="none" xmlns="http://www.w3.org/2000/svg">
<path d="M212 90.4551C212 140.161 171.706 180.455 122 180.455C72.2944 180.455 32 140.161 32 90.4551C32 40.7495 72.2944 0.455078 122 0.455078C171.706 0.455078 212 40.7495 212 90.4551ZM77 90.4551C77 115.308 97.1472 135.455 122 135.455C146.853 135.455 167 115.308 167 90.4551C167 65.6023 146.853 45.4551 122 45.4551C97.1472 45.4551 77 65.6023 77 90.4551Z" fill="#FF9C00"/>
<path d="M122 0.455078C143.303 0.455078 163.915 8.01156 180.17 21.7804C196.426 35.5492 207.27 54.6377 210.774 75.6504C214.278 96.6631 210.215 118.238 199.308 136.536C188.401 154.835 171.356 168.671 151.206 175.584L136.603 133.02C146.678 129.563 155.2 122.645 160.654 113.496C166.108 104.346 168.139 93.5591 166.387 83.0527C164.635 72.5464 159.213 63.0022 151.085 56.1177C142.958 49.2333 132.651 45.4551 122 45.4551V0.455078Z" fill="#00A19A"/>
<path d="M4.986 14.9745C4.11 14.9745 3.24 14.8605 2.376 14.6325C1.524 14.3925 0.792 14.0565 0.18 13.6245L1.332 11.3925C1.812 11.7405 2.364 12.0165 2.988 12.2205C3.624 12.4245 4.266 12.5265 4.914 12.5265C5.646 12.5265 6.222 12.3825 6.642 12.0945C7.062 11.8065 7.272 11.4045 7.272 10.8885C7.272 10.5645 7.188 10.2765 7.02 10.0245C6.852 9.77254 6.552 9.58054 6.12 9.44854C5.7 9.31654 5.106 9.25054 4.338 9.25054H1.116L1.764 2.15854H9.45V4.49854H2.808L4.32 3.16654L3.87 8.22454L2.358 6.89254H5.022C6.27 6.89254 7.272 7.06654 8.028 7.41454C8.796 7.75054 9.354 8.21254 9.702 8.80054C10.05 9.38854 10.224 10.0545 10.224 10.7985C10.224 11.5425 10.038 12.2325 9.666 12.8685C9.294 13.4925 8.718 14.0025 7.938 14.3985C7.17 14.7825 6.186 14.9745 4.986 14.9745ZM11.2112 14.7585V12.8685L16.0712 8.27854C16.4552 7.93054 16.7372 7.61854 16.9172 7.34254C17.0972 7.06654 17.2172 6.81454 17.2772 6.58654C17.3492 6.35854 17.3852 6.14854 17.3852 5.95654C17.3852 5.45254 17.2112 5.06854 16.8632 4.80454C16.5272 4.52854 16.0292 4.39054 15.3692 4.39054C14.8412 4.39054 14.3492 4.49254 13.8932 4.69654C13.4492 4.90054 13.0712 5.21854 12.7592 5.65054L10.6352 4.28254C11.1152 3.56254 11.7872 2.99254 12.6512 2.57254C13.5152 2.15254 14.5112 1.94254 15.6392 1.94254C16.5752 1.94254 17.3912 2.09854 18.0872 2.41054C18.7952 2.71054 19.3412 3.13654 19.7252 3.68854C20.1212 4.24054 20.3192 4.90054 20.3192 5.66855C20.3192 6.07654 20.2652 6.48454 20.1572 6.89254C20.0612 7.28854 19.8572 7.70854 19.5452 8.15254C19.2452 8.59654 18.8012 9.09454 18.2132 9.64654L14.1812 13.4445L13.6232 12.3825H20.7332V14.7585H11.2112ZM22.2202 17.5305L23.4082 13.2105L23.8042 14.8305C23.2882 14.8305 22.8622 14.6805 22.5262 14.3805C22.2022 14.0805 22.0402 13.6665 22.0402 13.1385C22.0402 12.6105 22.2082 12.1905 22.5442 11.8785C22.8802 11.5665 23.2942 11.4105 23.7862 11.4105C24.2902 11.4105 24.7042 11.5725 25.0282 11.8965C25.3522 12.2085 25.5142 12.6225 25.5142 13.1385C25.5142 13.2945 25.5022 13.4505 25.4782 13.6065C25.4542 13.7505 25.4062 13.9305 25.3342 14.1465C25.2742 14.3505 25.1722 14.6145 25.0282 14.9385L24.0022 17.5305H22.2202ZM26.8909 14.7585V12.8685L31.7509 8.27854C32.1349 7.93054 32.4169 7.61854 32.5969 7.34254C32.7769 7.06654 32.8969 6.81454 32.9569 6.58654C33.0289 6.35854 33.0649 6.14854 33.0649 5.95654C33.0649 5.45254 32.8909 5.06854 32.5429 4.80454C32.2069 4.52854 31.7089 4.39054 31.0489 4.39054C30.5209 4.39054 30.0289 4.49254 29.5729 4.69654C29.1289 4.90054 28.7509 5.21854 28.4389 5.65054L26.3149 4.28254C26.7949 3.56254 27.4669 2.99254 28.3309 2.57254C29.1949 2.15254 30.1909 1.94254 31.3189 1.94254C32.2549 1.94254 33.0709 2.09854 33.7669 2.41054C34.4749 2.71054 35.0209 3.13654 35.4049 3.68854C35.8009 4.24054 35.9989 4.90054 35.9989 5.66855C35.9989 6.07654 35.9449 6.48454 35.8369 6.89254C35.7409 7.28854 35.5369 7.70854 35.2249 8.15254C34.9249 8.59654 34.4809 9.09454 33.8929 9.64654L29.8609 13.4445L29.3029 12.3825H36.4129V14.7585H26.8909ZM43.2501 14.9745C42.0981 14.9745 41.0961 14.7345 40.2441 14.2545C39.4041 13.7745 38.7561 13.0725 38.3001 12.1485C37.8441 11.2245 37.6161 10.0845 37.6161 8.72854C37.6161 7.27654 37.8861 6.04654 38.4261 5.03854C38.9781 4.03054 39.7341 3.26254 40.6941 2.73454C41.6661 2.20654 42.7821 1.94254 44.0421 1.94254C44.7141 1.94254 45.3561 2.01454 45.9681 2.15854C46.5801 2.30254 47.1081 2.51854 47.5521 2.80654L46.4721 4.94854C46.1241 4.70854 45.7521 4.54654 45.3561 4.46254C44.9601 4.36654 44.5461 4.31854 44.1141 4.31854C43.0221 4.31854 42.1581 4.64854 41.5221 5.30854C40.8861 5.96854 40.5681 6.94654 40.5681 8.24254C40.5681 8.45854 40.5681 8.69854 40.5681 8.96254C40.5801 9.22654 40.6161 9.49054 40.6761 9.75454L39.8661 8.99854C40.0941 8.53054 40.3881 8.14054 40.7481 7.82854C41.1081 7.50454 41.5341 7.26454 42.0261 7.10854C42.5301 6.94054 43.0821 6.85654 43.6821 6.85654C44.4981 6.85654 45.2301 7.01854 45.8781 7.34254C46.5261 7.66654 47.0421 8.12254 47.4261 8.71054C47.8221 9.29854 48.0201 9.98854 48.0201 10.7805C48.0201 11.6325 47.8041 12.3765 47.3721 13.0125C46.9521 13.6365 46.3821 14.1225 45.6621 14.4705C44.9541 14.8065 44.1501 14.9745 43.2501 14.9745ZM43.0881 12.7965C43.4961 12.7965 43.8561 12.7245 44.1681 12.5805C44.4921 12.4245 44.7441 12.2025 44.9241 11.9145C45.1041 11.6265 45.1941 11.2965 45.1941 10.9245C45.1941 10.3485 44.9961 9.89254 44.6001 9.55654C44.2161 9.20854 43.7001 9.03454 43.0521 9.03454C42.6201 9.03454 42.2421 9.11854 41.9181 9.28654C41.5941 9.44254 41.3361 9.66454 41.1441 9.95254C40.9641 10.2285 40.8741 10.5525 40.8741 10.9245C40.8741 11.2845 40.9641 11.6085 41.1441 11.8965C41.3241 12.1725 41.5761 12.3945 41.9001 12.5625C42.2241 12.7185 42.6201 12.7965 43.0881 12.7965ZM50.5434 14.7585L59.1474 2.15854H61.2894L52.6854 14.7585H50.5434ZM51.6414 8.96254C51.0294 8.96254 50.4894 8.82454 50.0214 8.54854C49.5534 8.26054 49.1814 7.85854 48.9054 7.34254C48.6414 6.81454 48.5094 6.19654 48.5094 5.48854C48.5094 4.78054 48.6414 4.16854 48.9054 3.65254C49.1814 3.13654 49.5534 2.73454 50.0214 2.44654C50.4894 2.15854 51.0294 2.01454 51.6414 2.01454C52.2534 2.01454 52.7934 2.15854 53.2614 2.44654C53.7294 2.73454 54.0954 3.13654 54.3594 3.65254C54.6234 4.16854 54.7554 4.78054 54.7554 5.48854C54.7554 6.19654 54.6234 6.81454 54.3594 7.34254C54.0954 7.85854 53.7294 8.26054 53.2614 8.54854C52.7934 8.82454 52.2534 8.96254 51.6414 8.96254ZM51.6414 7.48654C52.0374 7.48654 52.3554 7.32454 52.5954 7.00054C52.8354 6.66454 52.9554 6.16054 52.9554 5.48854C52.9554 4.81654 52.8354 4.31854 52.5954 3.99454C52.3554 3.65854 52.0374 3.49054 51.6414 3.49054C51.2574 3.49054 50.9394 3.65854 50.6874 3.99454C50.4474 4.31854 50.3274 4.81654 50.3274 5.48854C50.3274 6.14854 50.4474 6.64654 50.6874 6.98254C50.9394 7.31854 51.2574 7.48654 51.6414 7.48654ZM60.1914 14.9025C59.5914 14.9025 59.0514 14.7645 58.5714 14.4885C58.1034 14.2005 57.7374 13.7985 57.4734 13.2825C57.2094 12.7545 57.0774 12.1365 57.0774 11.4285C57.0774 10.7205 57.2094 10.1085 57.4734 9.59254C57.7374 9.07654 58.1034 8.67454 58.5714 8.38654C59.0514 8.09854 59.5914 7.95454 60.1914 7.95454C60.8154 7.95454 61.3614 8.09854 61.8294 8.38654C62.2974 8.67454 62.6634 9.07654 62.9274 9.59254C63.1914 10.1085 63.3234 10.7205 63.3234 11.4285C63.3234 12.1365 63.1914 12.7545 62.9274 13.2825C62.6634 13.7985 62.2974 14.2005 61.8294 14.4885C61.3614 14.7645 60.8154 14.9025 60.1914 14.9025ZM60.1914 13.4265C60.5874 13.4265 60.9054 13.2645 61.1454 12.9405C61.3854 12.6045 61.5054 12.1005 61.5054 11.4285C61.5054 10.7685 61.3854 10.2705 61.1454 9.93454C60.9054 9.59854 60.5874 9.43054 60.1914 9.43054C59.8074 9.43054 59.4894 9.59854 59.2374 9.93454C58.9974 10.2585 58.8774 10.7565 58.8774 11.4285C58.8774 12.1005 58.9974 12.6045 59.2374 12.9405C59.4894 13.2645 59.8074 13.4265 60.1914 13.4265Z" fill="#1B3772"/>
<path d="M181.558 178.113V176.151L187.498 168.159H190.558L184.744 176.151L183.322 175.737H193.24V178.113H181.558ZM188.344 180.759V178.113L188.434 175.737V173.379H191.188V180.759H188.344ZM193.968 178.113V176.151L199.908 168.159H202.968L197.154 176.151L195.732 175.737H205.65V178.113H193.968ZM200.754 180.759V178.113L200.844 175.737V173.379H203.598V180.759H200.754ZM206.982 183.531L208.17 179.211L208.566 180.831C208.05 180.831 207.624 180.681 207.288 180.381C206.964 180.081 206.802 179.667 206.802 179.139C206.802 178.611 206.97 178.191 207.306 177.879C207.642 177.567 208.056 177.411 208.548 177.411C209.052 177.411 209.466 177.573 209.79 177.897C210.114 178.209 210.276 178.623 210.276 179.139C210.276 179.295 210.264 179.451 210.24 179.607C210.216 179.751 210.168 179.931 210.096 180.147C210.036 180.351 209.934 180.615 209.79 180.939L208.764 183.531H206.982ZM213.302 180.759L218.378 169.275L219.134 170.535H212.348L213.644 169.167V172.587H211.052V168.159H221.15V170.049L216.47 180.759H213.302ZM221.126 178.113V176.151L227.066 168.159H230.126L224.312 176.151L222.89 175.737H232.808V178.113H221.126ZM227.912 180.759V178.113L228.002 175.737V173.379H230.756V180.759H227.912ZM234.954 180.759L243.558 168.159H245.7L237.096 180.759H234.954ZM236.052 174.963C235.44 174.963 234.9 174.825 234.432 174.549C233.964 174.261 233.592 173.859 233.316 173.343C233.052 172.815 232.92 172.197 232.92 171.489C232.92 170.781 233.052 170.169 233.316 169.653C233.592 169.137 233.964 168.735 234.432 168.447C234.9 168.159 235.44 168.015 236.052 168.015C236.664 168.015 237.204 168.159 237.672 168.447C238.14 168.735 238.506 169.137 238.77 169.653C239.034 170.169 239.166 170.781 239.166 171.489C239.166 172.197 239.034 172.815 238.77 173.343C238.506 173.859 238.14 174.261 237.672 174.549C237.204 174.825 236.664 174.963 236.052 174.963ZM236.052 173.487C236.448 173.487 236.766 173.325 237.006 173.001C237.246 172.665 237.366 172.161 237.366 171.489C237.366 170.817 237.246 170.319 237.006 169.995C236.766 169.659 236.448 169.491 236.052 169.491C235.668 169.491 235.35 169.659 235.098 169.995C234.858 170.319 234.738 170.817 234.738 171.489C234.738 172.149 234.858 172.647 235.098 172.983C235.35 173.319 235.668 173.487 236.052 173.487ZM244.602 180.903C244.002 180.903 243.462 180.765 242.982 180.489C242.514 180.201 242.148 179.799 241.884 179.283C241.62 178.755 241.488 178.137 241.488 177.429C241.488 176.721 241.62 176.109 241.884 175.593C242.148 175.077 242.514 174.675 242.982 174.387C243.462 174.099 244.002 173.955 244.602 173.955C245.226 173.955 245.772 174.099 246.24 174.387C246.708 174.675 247.074 175.077 247.338 175.593C247.602 176.109 247.734 176.721 247.734 177.429C247.734 178.137 247.602 178.755 247.338 179.283C247.074 179.799 246.708 180.201 246.24 180.489C245.772 180.765 245.226 180.903 244.602 180.903ZM244.602 179.427C244.998 179.427 245.316 179.265 245.556 178.941C245.796 178.605 245.916 178.101 245.916 177.429C245.916 176.769 245.796 176.271 245.556 175.935C245.316 175.599 244.998 175.431 244.602 175.431C244.218 175.431 243.9 175.599 243.648 175.935C243.408 176.259 243.288 176.757 243.288 177.429C243.288 178.101 243.408 178.605 243.648 178.941C243.9 179.265 244.218 179.427 244.602 179.427Z" fill="#1B3772"/>
</svg>
