<svg width="244" height="184" viewBox="0 0 244 184" fill="none" xmlns="http://www.w3.org/2000/svg">
<path d="M212 90.4551C212 140.161 171.706 180.455 122 180.455C72.2944 180.455 32 140.161 32 90.4551C32 40.7495 72.2944 0.455139 122 0.455139C171.706 0.455139 212 40.7495 212 90.4551ZM77 90.4551C77 115.308 97.1472 135.455 122 135.455C146.853 135.455 167 115.308 167 90.4551C167 65.6023 146.853 45.4551 122 45.4551C97.1472 45.4551 77 65.6023 77 90.4551Z" fill="#FF9C00"/>
<path d="M122 0.455139C135.668 0.455139 149.157 3.56821 161.442 9.55817C173.728 15.5481 184.488 24.2576 192.905 35.0258C201.323 45.794 207.178 58.338 210.025 71.7062C212.873 85.0744 212.638 98.9155 209.339 112.179C206.04 125.443 199.763 137.781 190.984 148.258C182.206 158.734 171.157 167.074 158.675 172.644C146.193 178.213 132.607 180.867 118.947 180.403C105.287 179.94 91.9117 176.371 79.8364 169.968L100.918 130.211C106.956 133.413 113.643 135.197 120.473 135.429C127.304 135.661 134.097 134.334 140.338 131.549C146.578 128.764 152.103 124.595 156.492 119.357C160.881 114.118 164.02 107.949 165.669 101.317C167.319 94.6853 167.436 87.7647 166.013 81.0807C164.589 74.3966 161.662 68.1246 157.453 62.7405C153.244 57.3564 147.864 53.0016 141.721 50.0067C135.578 47.0117 128.834 45.4551 122 45.4551V0.455139Z" fill="#00A19A"/>
<path d="M0.558 12.1126V10.1506L6.498 2.15861H9.558L3.744 10.1506L2.322 9.73661H12.24V12.1126H0.558ZM7.344 14.7586V12.1126L7.434 9.73661V7.37861H10.188V14.7586H7.344ZM13.0042 14.7586V12.8686L17.8642 8.27861C18.2482 7.93061 18.5302 7.61861 18.7102 7.34261C18.8902 7.06661 19.0102 6.81461 19.0702 6.58661C19.1422 6.35861 19.1782 6.14861 19.1782 5.95661C19.1782 5.45261 19.0042 5.06861 18.6562 4.80461C18.3202 4.52861 17.8222 4.39061 17.1622 4.39061C16.6342 4.39061 16.1422 4.49261 15.6862 4.69661C15.2422 4.90061 14.8642 5.21861 14.5522 5.65061L12.4282 4.28261C12.9082 3.56261 13.5802 2.99261 14.4442 2.57261C15.3082 2.15261 16.3042 1.94261 17.4322 1.94261C18.3682 1.94261 19.1842 2.09861 19.8802 2.41061C20.5882 2.71061 21.1342 3.13661 21.5182 3.68861C21.9142 4.24061 22.1122 4.90061 22.1122 5.66861C22.1122 6.07661 22.0582 6.48461 21.9502 6.89261C21.8542 7.28861 21.6502 7.70861 21.3382 8.15261C21.0382 8.59661 20.5942 9.09461 20.0062 9.64661L15.9742 13.4446L15.4162 12.3826H22.5262V14.7586H13.0042ZM24.0131 17.5306L25.2011 13.2106L25.5971 14.8306C25.0811 14.8306 24.6551 14.6806 24.3191 14.3806C23.9951 14.0806 23.8331 13.6666 23.8331 13.1386C23.8331 12.6106 24.0011 12.1906 24.3371 11.8786C24.6731 11.5666 25.0871 11.4106 25.5791 11.4106C26.0831 11.4106 26.4971 11.5726 26.8211 11.8966C27.1451 12.2086 27.3071 12.6226 27.3071 13.1386C27.3071 13.2946 27.2951 13.4506 27.2711 13.6066C27.2471 13.7506 27.1991 13.9306 27.1271 14.1466C27.0671 14.3506 26.9651 14.6146 26.8211 14.9386L25.7951 17.5306H24.0131ZM28.6838 14.7586V12.8686L33.5438 8.27861C33.9278 7.93061 34.2098 7.61861 34.3898 7.34261C34.5698 7.06661 34.6898 6.81461 34.7498 6.58661C34.8218 6.35861 34.8578 6.14861 34.8578 5.95661C34.8578 5.45261 34.6838 5.06861 34.3358 4.80461C33.9998 4.52861 33.5018 4.39061 32.8418 4.39061C32.3138 4.39061 31.8218 4.49261 31.3658 4.69661C30.9218 4.90061 30.5438 5.21861 30.2318 5.65061L28.1078 4.28261C28.5878 3.56261 29.2598 2.99261 30.1238 2.57261C30.9878 2.15261 31.9838 1.94261 33.1118 1.94261C34.0478 1.94261 34.8638 2.09861 35.5598 2.41061C36.2678 2.71061 36.8138 3.13661 37.1978 3.68861C37.5938 4.24061 37.7918 4.90061 37.7918 5.66861C37.7918 6.07661 37.7378 6.48461 37.6298 6.89261C37.5338 7.28861 37.3298 7.70861 37.0178 8.15261C36.7178 8.59661 36.2738 9.09461 35.6858 9.64661L31.6538 13.4446L31.0958 12.3826H38.2058V14.7586H28.6838ZM39.0717 12.1126V10.1506L45.0117 2.15861H48.0717L42.2577 10.1506L40.8357 9.73661H50.7537V12.1126H39.0717ZM45.8577 14.7586V12.1126L45.9477 9.73661V7.37861H48.7017V14.7586H45.8577ZM52.8989 14.7586L61.5029 2.15861H63.6449L55.0409 14.7586H52.8989ZM53.9969 8.96261C53.3849 8.96261 52.8449 8.82461 52.3769 8.54861C51.9089 8.26061 51.5369 7.85861 51.2609 7.34261C50.9969 6.81461 50.8649 6.19661 50.8649 5.48861C50.8649 4.78061 50.9969 4.16861 51.2609 3.65261C51.5369 3.13661 51.9089 2.73461 52.3769 2.44661C52.8449 2.15861 53.3849 2.01461 53.9969 2.01461C54.6089 2.01461 55.1489 2.15861 55.6169 2.44661C56.0849 2.73461 56.4509 3.13661 56.7149 3.65261C56.9789 4.16861 57.1109 4.78061 57.1109 5.48861C57.1109 6.19661 56.9789 6.81461 56.7149 7.34261C56.4509 7.85861 56.0849 8.26061 55.6169 8.54861C55.1489 8.82461 54.6089 8.96261 53.9969 8.96261ZM53.9969 7.48661C54.3929 7.48661 54.7109 7.32461 54.9509 7.00061C55.1909 6.66461 55.3109 6.16061 55.3109 5.48861C55.3109 4.81661 55.1909 4.31861 54.9509 3.99461C54.7109 3.65861 54.3929 3.49061 53.9969 3.49061C53.6129 3.49061 53.2949 3.65861 53.0429 3.99461C52.8029 4.31861 52.6829 4.81661 52.6829 5.48861C52.6829 6.14861 52.8029 6.64661 53.0429 6.98261C53.2949 7.31861 53.6129 7.48661 53.9969 7.48661ZM62.5469 14.9026C61.9469 14.9026 61.4069 14.7646 60.9269 14.4886C60.4589 14.2006 60.0929 13.7986 59.8289 13.2826C59.5649 12.7546 59.4329 12.1366 59.4329 11.4286C59.4329 10.7206 59.5649 10.1086 59.8289 9.59261C60.0929 9.07661 60.4589 8.67461 60.9269 8.38661C61.4069 8.09861 61.9469 7.95461 62.5469 7.95461C63.1709 7.95461 63.7169 8.09861 64.1849 8.38661C64.6529 8.67461 65.0189 9.07661 65.2829 9.59261C65.5469 10.1086 65.6789 10.7206 65.6789 11.4286C65.6789 12.1366 65.5469 12.7546 65.2829 13.2826C65.0189 13.7986 64.6529 14.2006 64.1849 14.4886C63.7169 14.7646 63.1709 14.9026 62.5469 14.9026ZM62.5469 13.4266C62.9429 13.4266 63.2609 13.2646 63.5009 12.9406C63.7409 12.6046 63.8609 12.1006 63.8609 11.4286C63.8609 10.7686 63.7409 10.2706 63.5009 9.93461C63.2609 9.59861 62.9429 9.43061 62.5469 9.43061C62.1629 9.43061 61.8449 9.59861 61.5929 9.93461C61.3529 10.2586 61.2329 10.7566 61.2329 11.4286C61.2329 12.1006 61.3529 12.6046 61.5929 12.9406C61.8449 13.2646 62.1629 13.4266 62.5469 13.4266Z" fill="#1B3772"/>
<path d="M185.986 180.975C185.11 180.975 184.24 180.861 183.376 180.633C182.524 180.393 181.792 180.057 181.18 179.625L182.332 177.393C182.812 177.741 183.364 178.017 183.988 178.221C184.624 178.425 185.266 178.527 185.914 178.527C186.646 178.527 187.222 178.383 187.642 178.095C188.062 177.807 188.272 177.405 188.272 176.889C188.272 176.565 188.188 176.277 188.02 176.025C187.852 175.773 187.552 175.581 187.12 175.449C186.7 175.317 186.106 175.251 185.338 175.251H182.116L182.764 168.159H190.45V170.499H183.808L185.32 169.167L184.87 174.225L183.358 172.893H186.022C187.27 172.893 188.272 173.067 189.028 173.415C189.796 173.751 190.354 174.213 190.702 174.801C191.05 175.389 191.224 176.055 191.224 176.799C191.224 177.543 191.038 178.233 190.666 178.869C190.294 179.493 189.718 180.003 188.938 180.399C188.17 180.783 187.186 180.975 185.986 180.975ZM194.212 180.759L199.288 169.275L200.044 170.535H193.258L194.554 169.167V172.587H191.962V168.159H202.06V170.049L197.38 180.759H194.212ZM202.605 183.531L203.793 179.211L204.189 180.831C203.673 180.831 203.247 180.681 202.911 180.381C202.587 180.081 202.425 179.667 202.425 179.139C202.425 178.611 202.593 178.191 202.929 177.879C203.265 177.567 203.679 177.411 204.171 177.411C204.675 177.411 205.089 177.573 205.413 177.897C205.737 178.209 205.899 178.623 205.899 179.139C205.899 179.295 205.887 179.451 205.863 179.607C205.839 179.751 205.791 179.931 205.719 180.147C205.659 180.351 205.557 180.615 205.413 180.939L204.387 183.531H202.605ZM208.925 180.759L214.001 169.275L214.757 170.535H207.971L209.267 169.167V172.587H206.675V168.159H216.773V170.049L212.093 180.759H208.925ZM223.354 180.975C222.202 180.975 221.2 180.735 220.348 180.255C219.508 179.775 218.86 179.073 218.404 178.149C217.948 177.225 217.72 176.085 217.72 174.729C217.72 173.277 217.99 172.047 218.53 171.039C219.082 170.031 219.838 169.263 220.798 168.735C221.77 168.207 222.886 167.943 224.146 167.943C224.818 167.943 225.46 168.015 226.072 168.159C226.684 168.303 227.212 168.519 227.656 168.807L226.576 170.949C226.228 170.709 225.856 170.547 225.46 170.463C225.064 170.367 224.65 170.319 224.218 170.319C223.126 170.319 222.262 170.649 221.626 171.309C220.99 171.969 220.672 172.947 220.672 174.243C220.672 174.459 220.672 174.699 220.672 174.963C220.684 175.227 220.72 175.491 220.78 175.755L219.97 174.999C220.198 174.531 220.492 174.141 220.852 173.829C221.212 173.505 221.638 173.265 222.13 173.109C222.634 172.941 223.186 172.857 223.786 172.857C224.602 172.857 225.334 173.019 225.982 173.343C226.63 173.667 227.146 174.123 227.53 174.711C227.926 175.299 228.124 175.989 228.124 176.781C228.124 177.633 227.908 178.377 227.476 179.013C227.056 179.637 226.486 180.123 225.766 180.471C225.058 180.807 224.254 180.975 223.354 180.975ZM223.192 178.797C223.6 178.797 223.96 178.725 224.272 178.581C224.596 178.425 224.848 178.203 225.028 177.915C225.208 177.627 225.298 177.297 225.298 176.925C225.298 176.349 225.1 175.893 224.704 175.557C224.32 175.209 223.804 175.035 223.156 175.035C222.724 175.035 222.346 175.119 222.022 175.287C221.698 175.443 221.44 175.665 221.248 175.953C221.068 176.229 220.978 176.553 220.978 176.925C220.978 177.285 221.068 177.609 221.248 177.897C221.428 178.173 221.68 178.395 222.004 178.563C222.328 178.719 222.724 178.797 223.192 178.797ZM230.647 180.759L239.251 168.159H241.393L232.789 180.759H230.647ZM231.745 174.963C231.133 174.963 230.593 174.825 230.125 174.549C229.657 174.261 229.285 173.859 229.009 173.343C228.745 172.815 228.613 172.197 228.613 171.489C228.613 170.781 228.745 170.169 229.009 169.653C229.285 169.137 229.657 168.735 230.125 168.447C230.593 168.159 231.133 168.015 231.745 168.015C232.357 168.015 232.897 168.159 233.365 168.447C233.833 168.735 234.199 169.137 234.463 169.653C234.727 170.169 234.859 170.781 234.859 171.489C234.859 172.197 234.727 172.815 234.463 173.343C234.199 173.859 233.833 174.261 233.365 174.549C232.897 174.825 232.357 174.963 231.745 174.963ZM231.745 173.487C232.141 173.487 232.459 173.325 232.699 173.001C232.939 172.665 233.059 172.161 233.059 171.489C233.059 170.817 232.939 170.319 232.699 169.995C232.459 169.659 232.141 169.491 231.745 169.491C231.361 169.491 231.043 169.659 230.791 169.995C230.551 170.319 230.431 170.817 230.431 171.489C230.431 172.149 230.551 172.647 230.791 172.983C231.043 173.319 231.361 173.487 231.745 173.487ZM240.295 180.903C239.695 180.903 239.155 180.765 238.675 180.489C238.207 180.201 237.841 179.799 237.577 179.283C237.313 178.755 237.181 178.137 237.181 177.429C237.181 176.721 237.313 176.109 237.577 175.593C237.841 175.077 238.207 174.675 238.675 174.387C239.155 174.099 239.695 173.955 240.295 173.955C240.919 173.955 241.465 174.099 241.933 174.387C242.401 174.675 242.767 175.077 243.031 175.593C243.295 176.109 243.427 176.721 243.427 177.429C243.427 178.137 243.295 178.755 243.031 179.283C242.767 179.799 242.401 180.201 241.933 180.489C241.465 180.765 240.919 180.903 240.295 180.903ZM240.295 179.427C240.691 179.427 241.009 179.265 241.249 178.941C241.489 178.605 241.609 178.101 241.609 177.429C241.609 176.769 241.489 176.271 241.249 175.935C241.009 175.599 240.691 175.431 240.295 175.431C239.911 175.431 239.593 175.599 239.341 175.935C239.101 176.259 238.981 176.757 238.981 177.429C238.981 178.101 239.101 178.605 239.341 178.941C239.593 179.265 239.911 179.427 240.295 179.427Z" fill="#1B3772"/>
</svg>
