<svg width="247" height="184" viewBox="0 0 247 184" fill="none" xmlns="http://www.w3.org/2000/svg">
<path d="M212 90.4551C212 140.161 171.706 180.455 122 180.455C72.2944 180.455 32 140.161 32 90.4551C32 40.7495 72.2944 0.455139 122 0.455139C171.706 0.455139 212 40.7495 212 90.4551ZM77 90.4551C77 115.308 97.1472 135.455 122 135.455C146.853 135.455 167 115.308 167 90.4551C167 65.6023 146.853 45.4551 122 45.4551C97.1472 45.4551 77 65.6023 77 90.4551Z" fill="#FF9C00"/>
<path d="M122 0.455139C135.952 0.455139 149.713 3.69893 162.196 9.93033C174.68 16.1617 185.543 25.2101 193.929 36.3608C202.315 47.5115 207.994 60.4592 210.516 74.1814C213.039 87.9035 212.337 102.024 208.466 115.429C204.594 128.833 197.659 141.153 188.209 151.417C178.758 161.681 167.051 169.607 154.011 174.57C140.971 179.532 126.956 181.395 113.073 180.011C99.1896 178.627 85.8182 174.035 74.0146 166.596L98.0073 128.525C103.909 132.245 110.595 134.541 117.536 135.233C124.478 135.925 131.486 134.994 138.006 132.513C144.525 130.031 150.379 126.068 155.104 120.936C159.83 115.804 163.297 109.644 165.233 102.942C167.169 96.2397 167.52 89.1793 166.258 82.3183C164.997 75.4572 162.158 68.9833 157.965 63.408C153.772 57.8326 148.34 53.3084 142.098 50.1927C135.857 47.077 128.976 45.4551 122 45.4551V0.455139Z" fill="#00A19A"/>
<path d="M0.558 12.1126V10.1506L6.498 2.15861H9.558L3.744 10.1506L2.322 9.73661H12.24V12.1126H0.558ZM7.344 14.7586V12.1126L7.434 9.73661V7.37861H10.188V14.7586H7.344ZM14.5991 14.7586V3.23861L15.8591 4.49861H12.0791V2.15861H17.5151V14.7586H14.5991ZM19.812 17.5306L21 13.2106L21.396 14.8306C20.88 14.8306 20.454 14.6806 20.118 14.3806C19.794 14.0806 19.632 13.6666 19.632 13.1386C19.632 12.6106 19.8 12.1906 20.136 11.8786C20.472 11.5666 20.886 11.4106 21.378 11.4106C21.882 11.4106 22.296 11.5726 22.62 11.8966C22.944 12.2086 23.106 12.6226 23.106 13.1386C23.106 13.2946 23.094 13.4506 23.07 13.6066C23.046 13.7506 22.998 13.9306 22.926 14.1466C22.866 14.3506 22.764 14.6146 22.62 14.9386L21.594 17.5306H19.812ZM29.5864 14.9746C28.5544 14.9746 27.6304 14.7226 26.8144 14.2186C25.9984 13.7026 25.3564 12.9586 24.8884 11.9866C24.4204 11.0146 24.1864 9.83861 24.1864 8.45861C24.1864 7.07861 24.4204 5.90261 24.8884 4.93061C25.3564 3.95861 25.9984 3.22061 26.8144 2.71661C27.6304 2.20061 28.5544 1.94261 29.5864 1.94261C30.6304 1.94261 31.5544 2.20061 32.3584 2.71661C33.1744 3.22061 33.8164 3.95861 34.2844 4.93061C34.7524 5.90261 34.9864 7.07861 34.9864 8.45861C34.9864 9.83861 34.7524 11.0146 34.2844 11.9866C33.8164 12.9586 33.1744 13.7026 32.3584 14.2186C31.5544 14.7226 30.6304 14.9746 29.5864 14.9746ZM29.5864 12.5086C30.0784 12.5086 30.5044 12.3706 30.8644 12.0946C31.2364 11.8186 31.5244 11.3806 31.7284 10.7806C31.9444 10.1806 32.0524 9.40661 32.0524 8.45861C32.0524 7.51061 31.9444 6.73661 31.7284 6.13661C31.5244 5.53661 31.2364 5.09861 30.8644 4.82261C30.5044 4.54661 30.0784 4.40861 29.5864 4.40861C29.1064 4.40861 28.6804 4.54661 28.3084 4.82261C27.9484 5.09861 27.6604 5.53661 27.4444 6.13661C27.2404 6.73661 27.1384 7.51061 27.1384 8.45861C27.1384 9.40661 27.2404 10.1806 27.4444 10.7806C27.6604 11.3806 27.9484 11.8186 28.3084 12.0946C28.6804 12.3706 29.1064 12.5086 29.5864 12.5086ZM40.6872 14.9746C39.8112 14.9746 38.9412 14.8606 38.0772 14.6326C37.2252 14.3926 36.4932 14.0566 35.8812 13.6246L37.0332 11.3926C37.5132 11.7406 38.0652 12.0166 38.6892 12.2206C39.3252 12.4246 39.9672 12.5266 40.6152 12.5266C41.3472 12.5266 41.9232 12.3826 42.3432 12.0946C42.7632 11.8066 42.9732 11.4046 42.9732 10.8886C42.9732 10.5646 42.8892 10.2766 42.7212 10.0246C42.5532 9.77261 42.2532 9.58061 41.8212 9.44861C41.4012 9.31661 40.8072 9.25061 40.0392 9.25061H36.8172L37.4652 2.15861H45.1512V4.49861H38.5092L40.0212 3.1666L39.5712 8.22461L38.0592 6.89261H40.7232C41.9712 6.89261 42.9732 7.06661 43.7292 7.41461C44.4972 7.75061 45.0552 8.21261 45.4032 8.80061C45.7512 9.38861 45.9252 10.0546 45.9252 10.7986C45.9252 11.5426 45.7392 12.2326 45.3672 12.8686C44.9952 13.4926 44.4192 14.0026 43.6392 14.3986C42.8712 14.7826 41.8872 14.9746 40.6872 14.9746ZM48.7505 14.7586L57.3545 2.15861H59.4965L50.8925 14.7586H48.7505ZM49.8485 8.96261C49.2365 8.96261 48.6965 8.82461 48.2285 8.54861C47.7605 8.26061 47.3885 7.85861 47.1125 7.34261C46.8485 6.81461 46.7165 6.19661 46.7165 5.48861C46.7165 4.78061 46.8485 4.16861 47.1125 3.65261C47.3885 3.13661 47.7605 2.73461 48.2285 2.44661C48.6965 2.15861 49.2365 2.01461 49.8485 2.01461C50.4605 2.01461 51.0005 2.15861 51.4685 2.44661C51.9365 2.73461 52.3025 3.13661 52.5665 3.65261C52.8305 4.16861 52.9625 4.78061 52.9625 5.48861C52.9625 6.19661 52.8305 6.81461 52.5665 7.34261C52.3025 7.85861 51.9365 8.26061 51.4685 8.54861C51.0005 8.82461 50.4605 8.96261 49.8485 8.96261ZM49.8485 7.48661C50.2445 7.48661 50.5625 7.32461 50.8025 7.00061C51.0425 6.66461 51.1625 6.16061 51.1625 5.48861C51.1625 4.81661 51.0425 4.31861 50.8025 3.99461C50.5625 3.65861 50.2445 3.49061 49.8485 3.49061C49.4645 3.49061 49.1465 3.65861 48.8945 3.99461C48.6545 4.31861 48.5345 4.81661 48.5345 5.48861C48.5345 6.14861 48.6545 6.64661 48.8945 6.98261C49.1465 7.31861 49.4645 7.48661 49.8485 7.48661ZM58.3985 14.9026C57.7985 14.9026 57.2585 14.7646 56.7785 14.4886C56.3105 14.2006 55.9445 13.7986 55.6805 13.2826C55.4165 12.7546 55.2845 12.1366 55.2845 11.4286C55.2845 10.7206 55.4165 10.1086 55.6805 9.59261C55.9445 9.07661 56.3105 8.67461 56.7785 8.38661C57.2585 8.09861 57.7985 7.95461 58.3985 7.95461C59.0225 7.95461 59.5685 8.09861 60.0365 8.38661C60.5045 8.67461 60.8705 9.07661 61.1345 9.59261C61.3985 10.1086 61.5305 10.7206 61.5305 11.4286C61.5305 12.1366 61.3985 12.7546 61.1345 13.2826C60.8705 13.7986 60.5045 14.2006 60.0365 14.4886C59.5685 14.7646 59.0225 14.9026 58.3985 14.9026ZM58.3985 13.4266C58.7945 13.4266 59.1125 13.2646 59.3525 12.9406C59.5925 12.6046 59.7125 12.1006 59.7125 11.4286C59.7125 10.7686 59.5925 10.2706 59.3525 9.93461C59.1125 9.59861 58.7945 9.43061 58.3985 9.43061C58.0145 9.43061 57.6965 9.59861 57.4445 9.93461C57.2045 10.2586 57.0845 10.7566 57.0845 11.4286C57.0845 12.1006 57.2045 12.6046 57.4445 12.9406C57.6965 13.2646 58.0145 13.4266 58.3985 13.4266Z" fill="#1B3772"/>
<path d="M185.986 180.975C185.11 180.975 184.24 180.861 183.376 180.633C182.524 180.393 181.792 180.057 181.18 179.625L182.332 177.393C182.812 177.741 183.364 178.017 183.988 178.221C184.624 178.425 185.266 178.527 185.914 178.527C186.646 178.527 187.222 178.383 187.642 178.095C188.062 177.807 188.272 177.405 188.272 176.889C188.272 176.565 188.188 176.277 188.02 176.025C187.852 175.773 187.552 175.581 187.12 175.449C186.7 175.317 186.106 175.251 185.338 175.251H182.116L182.764 168.159H190.45V170.499H183.808L185.32 169.167L184.87 174.225L183.358 172.893H186.022C187.27 172.893 188.272 173.067 189.028 173.415C189.796 173.751 190.354 174.213 190.702 174.801C191.05 175.389 191.224 176.055 191.224 176.799C191.224 177.543 191.038 178.233 190.666 178.869C190.294 179.493 189.718 180.003 188.938 180.399C188.17 180.783 187.186 180.975 185.986 180.975ZM197.627 180.975C196.571 180.975 195.647 180.819 194.855 180.507C194.063 180.183 193.445 179.733 193.001 179.157C192.557 178.569 192.335 177.885 192.335 177.105C192.335 176.325 192.551 175.665 192.983 175.125C193.427 174.573 194.045 174.159 194.837 173.883C195.629 173.595 196.559 173.451 197.627 173.451C198.707 173.451 199.643 173.595 200.435 173.883C201.239 174.159 201.857 174.573 202.289 175.125C202.733 175.665 202.955 176.325 202.955 177.105C202.955 177.885 202.733 178.569 202.289 179.157C201.845 179.733 201.221 180.183 200.417 180.507C199.625 180.819 198.695 180.975 197.627 180.975ZM197.627 178.833C198.359 178.833 198.935 178.671 199.355 178.347C199.787 178.023 200.003 177.579 200.003 177.015C200.003 176.451 199.787 176.013 199.355 175.701C198.935 175.377 198.359 175.215 197.627 175.215C196.907 175.215 196.337 175.377 195.917 175.701C195.497 176.013 195.287 176.451 195.287 177.015C195.287 177.579 195.497 178.023 195.917 178.347C196.337 178.671 196.907 178.833 197.627 178.833ZM197.627 174.927C196.655 174.927 195.803 174.795 195.071 174.531C194.351 174.267 193.787 173.883 193.379 173.379C192.983 172.863 192.785 172.251 192.785 171.543C192.785 170.799 192.989 170.163 193.397 169.635C193.805 169.095 194.375 168.681 195.107 168.393C195.839 168.093 196.679 167.943 197.627 167.943C198.599 167.943 199.445 168.093 200.165 168.393C200.897 168.681 201.467 169.095 201.875 169.635C202.295 170.163 202.505 170.799 202.505 171.543C202.505 172.251 202.301 172.863 201.893 173.379C201.497 173.883 200.933 174.267 200.201 174.531C199.469 174.795 198.611 174.927 197.627 174.927ZM197.627 173.217C198.239 173.217 198.719 173.079 199.067 172.803C199.427 172.527 199.607 172.149 199.607 171.669C199.607 171.165 199.421 170.775 199.049 170.499C198.689 170.223 198.215 170.085 197.627 170.085C197.051 170.085 196.583 170.223 196.223 170.499C195.863 170.775 195.683 171.165 195.683 171.669C195.683 172.149 195.857 172.527 196.205 172.803C196.553 173.079 197.027 173.217 197.627 173.217ZM204.574 183.531L205.762 179.211L206.158 180.831C205.642 180.831 205.216 180.681 204.88 180.381C204.556 180.081 204.394 179.667 204.394 179.139C204.394 178.611 204.562 178.191 204.898 177.879C205.234 177.567 205.648 177.411 206.14 177.411C206.644 177.411 207.058 177.573 207.382 177.897C207.706 178.209 207.868 178.623 207.868 179.139C207.868 179.295 207.856 179.451 207.832 179.607C207.808 179.751 207.76 179.931 207.688 180.147C207.628 180.351 207.526 180.615 207.382 180.939L206.356 183.531H204.574ZM213.605 167.943C214.769 167.943 215.771 168.183 216.611 168.663C217.451 169.143 218.099 169.845 218.555 170.769C219.011 171.681 219.239 172.821 219.239 174.189C219.239 175.641 218.963 176.871 218.411 177.879C217.871 178.887 217.121 179.655 216.161 180.183C215.201 180.711 214.085 180.975 212.813 180.975C212.153 180.975 211.517 180.903 210.905 180.759C210.293 180.615 209.765 180.399 209.321 180.111L210.401 177.969C210.749 178.209 211.121 178.377 211.517 178.473C211.913 178.557 212.327 178.599 212.759 178.599C213.839 178.599 214.697 178.269 215.333 177.609C215.981 176.949 216.305 175.971 216.305 174.675C216.305 174.459 216.299 174.219 216.287 173.955C216.275 173.691 216.245 173.427 216.197 173.163L216.989 173.919C216.785 174.387 216.497 174.783 216.125 175.107C215.753 175.419 215.321 175.659 214.829 175.827C214.337 175.983 213.785 176.061 213.173 176.061C212.369 176.061 211.637 175.899 210.977 175.575C210.329 175.251 209.807 174.795 209.411 174.207C209.027 173.619 208.835 172.929 208.835 172.137C208.835 171.273 209.045 170.529 209.465 169.905C209.897 169.281 210.473 168.801 211.193 168.465C211.925 168.117 212.729 167.943 213.605 167.943ZM213.785 170.121C213.365 170.121 212.999 170.199 212.687 170.355C212.375 170.499 212.129 170.715 211.949 171.003C211.769 171.279 211.679 171.609 211.679 171.993C211.679 172.569 211.871 173.031 212.255 173.379C212.651 173.715 213.173 173.883 213.821 173.883C214.241 173.883 214.613 173.805 214.937 173.649C215.273 173.481 215.531 173.253 215.711 172.965C215.891 172.677 215.981 172.353 215.981 171.993C215.981 171.633 215.891 171.315 215.711 171.039C215.543 170.751 215.297 170.529 214.973 170.373C214.649 170.205 214.253 170.121 213.785 170.121ZM224.922 180.975C224.046 180.975 223.176 180.861 222.312 180.633C221.46 180.393 220.728 180.057 220.116 179.625L221.268 177.393C221.748 177.741 222.3 178.017 222.924 178.221C223.56 178.425 224.202 178.527 224.85 178.527C225.582 178.527 226.158 178.383 226.578 178.095C226.998 177.807 227.208 177.405 227.208 176.889C227.208 176.565 227.124 176.277 226.956 176.025C226.788 175.773 226.488 175.581 226.056 175.449C225.636 175.317 225.042 175.251 224.274 175.251H221.052L221.7 168.159H229.386V170.499H222.744L224.256 169.167L223.806 174.225L222.294 172.893H224.958C226.206 172.893 227.208 173.067 227.964 173.415C228.732 173.751 229.29 174.213 229.638 174.801C229.986 175.389 230.16 176.055 230.16 176.799C230.16 177.543 229.974 178.233 229.602 178.869C229.23 179.493 228.654 180.003 227.874 180.399C227.106 180.783 226.122 180.975 224.922 180.975ZM232.985 180.759L241.589 168.159H243.731L235.127 180.759H232.985ZM234.083 174.963C233.471 174.963 232.931 174.825 232.463 174.549C231.995 174.261 231.623 173.859 231.347 173.343C231.083 172.815 230.951 172.197 230.951 171.489C230.951 170.781 231.083 170.169 231.347 169.653C231.623 169.137 231.995 168.735 232.463 168.447C232.931 168.159 233.471 168.015 234.083 168.015C234.695 168.015 235.235 168.159 235.703 168.447C236.171 168.735 236.537 169.137 236.801 169.653C237.065 170.169 237.197 170.781 237.197 171.489C237.197 172.197 237.065 172.815 236.801 173.343C236.537 173.859 236.171 174.261 235.703 174.549C235.235 174.825 234.695 174.963 234.083 174.963ZM234.083 173.487C234.479 173.487 234.797 173.325 235.037 173.001C235.277 172.665 235.397 172.161 235.397 171.489C235.397 170.817 235.277 170.319 235.037 169.995C234.797 169.659 234.479 169.491 234.083 169.491C233.699 169.491 233.381 169.659 233.129 169.995C232.889 170.319 232.769 170.817 232.769 171.489C232.769 172.149 232.889 172.647 233.129 172.983C233.381 173.319 233.699 173.487 234.083 173.487ZM242.633 180.903C242.033 180.903 241.493 180.765 241.013 180.489C240.545 180.201 240.179 179.799 239.915 179.283C239.651 178.755 239.519 178.137 239.519 177.429C239.519 176.721 239.651 176.109 239.915 175.593C240.179 175.077 240.545 174.675 241.013 174.387C241.493 174.099 242.033 173.955 242.633 173.955C243.257 173.955 243.803 174.099 244.271 174.387C244.739 174.675 245.105 175.077 245.369 175.593C245.633 176.109 245.765 176.721 245.765 177.429C245.765 178.137 245.633 178.755 245.369 179.283C245.105 179.799 244.739 180.201 244.271 180.489C243.803 180.765 243.257 180.903 242.633 180.903ZM242.633 179.427C243.029 179.427 243.347 179.265 243.587 178.941C243.827 178.605 243.947 178.101 243.947 177.429C243.947 176.769 243.827 176.271 243.587 175.935C243.347 175.599 243.029 175.431 242.633 175.431C242.249 175.431 241.931 175.599 241.679 175.935C241.439 176.259 241.319 176.757 241.319 177.429C241.319 178.101 241.439 178.605 241.679 178.941C241.931 179.265 242.249 179.427 242.633 179.427Z" fill="#1B3772"/>
</svg>
